<?xml version="1.0" encoding="UTF-8"?>
<svg version="1.1" xmlns="http://www.w3.org/2000/svg" width="48" height="48">
<path d="M0 0 C14.85 0 29.7 0 45 0 C45 8.91 45 17.82 45 27 C30.15 27 15.3 27 0 27 C0 18.09 0 9.18 0 0 Z " fill="#4657B7" transform="translate(1,10)"/>
<path d="M0 0 C0.33 0 0.66 0 1 0 C1 4.95 1 9.9 1 15 C15.52 15 30.04 15 45 15 C45 18.96 45 22.92 45 27 C30.15 27 15.3 27 0 27 C0 18.09 0 9.18 0 0 Z " fill="#ECEFF1" transform="translate(1,10)"/>
<path d="M0 0 C5.94 0 11.88 0 18 0 C18 0.66 18 1.32 18 2 C17.01 2 16.02 2 15 2 C15 2.66 15 3.32 15 4 C17.475 4.495 17.475 4.495 20 5 C20 7.31 20 9.62 20 12 C13.07 12 6.14 12 -1 12 C-0.67 11.01 -0.34 10.02 0 9 C7.75 8.875 7.75 8.875 10 10 C10 9.01 10 8.02 10 7 C9.34 6.67 8.68 6.34 8 6 C8.33 4.68 8.66 3.36 9 2 C8.34 2 7.68 2 7 2 C7 3.32 7 4.64 7 6 C6.34 6 5.68 6 5 6 C5 4.68 5 3.36 5 2 C4.34 2 3.68 2 3 2 C3 3.32 3 4.64 3 6 C2.34 6 1.68 6 1 6 C0.67 4.02 0.34 2.04 0 0 Z " fill="#909AD4" transform="translate(3,13)"/>
<path d="M0 0 C0.33 0 0.66 0 1 0 C1 4.95 1 9.9 1 15 C15.52 15 30.04 15 45 15 C45 15.99 45 16.98 45 18 C30.48 18 15.96 18 1 18 C1 20.97 1 23.94 1 27 C0.67 27 0.34 27 0 27 C0 18.09 0 9.18 0 0 Z " fill="#EFF1F3" transform="translate(1,10)"/>
<path d="M0 0 C14.52 0 29.04 0 44 0 C44 0.99 44 1.98 44 3 C29.48 3 14.96 3 0 3 C0 2.01 0 1.02 0 0 Z " fill="#F44336" transform="translate(2,34)"/>
<path d="M0 0 C14.52 0 29.04 0 44 0 C44 0.99 44 1.98 44 3 C29.48 3 14.96 3 0 3 C0 2.01 0 1.02 0 0 Z " fill="#F44336" transform="translate(2,28)"/>
<path d="M0 0 C0.99 0 1.98 0 3 0 C3.20086443 3.71599191 3.1519437 4.77208445 1 8 C1.61875 7.814375 2.2375 7.62875 2.875 7.4375 C5 7 5 7 7 8 C7 7.01 7 6.02 7 5 C6.34 4.67 5.68 4.34 5 4 C6.32 3.67 7.64 3.34 9 3 C9 5.31 9 7.62 9 10 C2.07 10 -4.86 10 -12 10 C-11.67 9.01 -11.34 8.02 -11 7 C-3.25 6.875 -3.25 6.875 -1 8 C-1 7.01 -1 6.02 -1 5 C-1.66 4.67 -2.32 4.34 -3 4 C-2.01 4 -1.02 4 0 4 C0 2.68 0 1.36 0 0 Z " fill="#3F51B5" transform="translate(14,15)"/>
<path d="M0 0 C7.59 0 15.18 0 23 0 C23 0.99 23 1.98 23 3 C15.41 3 7.82 3 0 3 C0 2.01 0 1.02 0 0 Z " fill="#F44336" transform="translate(23,22)"/>
<path d="M0 0 C7.59 0 15.18 0 23 0 C23 0.99 23 1.98 23 3 C15.41 3 7.82 3 0 3 C0 2.01 0 1.02 0 0 Z " fill="#ECEFF1" transform="translate(23,19)"/>
<path d="M0 0 C7.59 0 15.18 0 23 0 C23 0.99 23 1.98 23 3 C15.41 3 7.82 3 0 3 C0 2.01 0 1.02 0 0 Z " fill="#F44336" transform="translate(23,16)"/>
<path d="M0 0 C7.59 0 15.18 0 23 0 C23 0.99 23 1.98 23 3 C15.41 3 7.82 3 0 3 C0 2.01 0 1.02 0 0 Z " fill="#ECEFF1" transform="translate(23,13)"/>
<path d="M0 0 C7.59 0 15.18 0 23 0 C23 0.99 23 1.98 23 3 C15.41 3 7.82 3 0 3 C0 2.01 0 1.02 0 0 Z " fill="#F44336" transform="translate(23,10)"/>
<path d="M0 0 C0.66 0 1.32 0 2 0 C2 1.32 2 2.64 2 4 C2.66 4 3.32 4 4 4 C4 2.68 4 1.36 4 0 C4.66 0 5.32 0 6 0 C6.33 2.64 6.66 5.28 7 8 C3.7 8 0.4 8 -3 8 C-3 7.34 -3 6.68 -3 6 C-2.34 6 -1.68 6 -1 6 C-0.67 4.02 -0.34 2.04 0 0 Z " fill="#727FC8" transform="translate(6,15)"/>
<path d="M0 0 C0.99 0 1.98 0 3 0 C3.25 2.3125 3.25 2.3125 3 5 C1 6.8125 1 6.8125 -1 8 C-1 7.01 -1 6.02 -1 5 C-1.66 4.67 -2.32 4.34 -3 4 C-2.01 4 -1.02 4 0 4 C0 2.68 0 1.36 0 0 Z " fill="#4759B8" transform="translate(14,15)"/>
<path d="M0 0 C0.66 0 1.32 0 2 0 C2.33 2.64 2.66 5.28 3 8 C1.68 8 0.36 8 -1 8 C-0.67 5.36 -0.34 2.72 0 0 Z " fill="#6674C4" transform="translate(10,15)"/>
<path d="M0 0 C1.98 0 3.96 0 6 0 C6 0.66 6 1.32 6 2 C5.01 2 4.02 2 3 2 C3 3.32 3 4.64 3 6 C2.34 6 1.68 6 1 6 C0.67 4.02 0.34 2.04 0 0 Z " fill="#A0A9DA" transform="translate(3,13)"/>
<path d="M0 0 C1.98 0 3.96 0 6 0 C6 0.66 6 1.32 6 2 C5.01 2 4.02 2 3 2 C3 3.32 3 4.64 3 6 C2.34 6 1.68 6 1 6 C1.33 4.68 1.66 3.36 2 2 C1.34 2 0.68 2 0 2 C0 1.34 0 0.68 0 0 Z " fill="#A8B0DD" transform="translate(15,13)"/>
</svg>
