<?xml version="1.0" encoding="UTF-8"?>
<svg version="1.1" xmlns="http://www.w3.org/2000/svg" width="96" height="96">
<path d="M0 0 C0.515625 0.309375 1.03125 0.61875 1.5625 0.9375 C5.92149702 2.83757562 10.4499868 3.63800475 15 2 C15.5775 2.804375 16.155 3.60875 16.75 4.4375 C19.03498846 7.03984797 19.67718478 7.68848607 23 8 C24.32 8 25.64 8 27 8 C27.99 8.99 27.99 8.99 29 10 C29.51949219 9.41089844 30.03898437 8.82179688 30.57421875 8.21484375 C31.27160156 7.46332031 31.96898438 6.71179688 32.6875 5.9375 C33.37199219 5.18339844 34.05648437 4.42929688 34.76171875 3.65234375 C37 2 37 2 39.76953125 2.25390625 C40.50558594 2.50011719 41.24164063 2.74632812 42 3 C42.78125 5.21484375 42.78125 5.21484375 43 8 C41.09375 10.31640625 41.09375 10.31640625 38.5 12.5625 C35.9182301 14.70184995 35.9182301 14.70184995 34 17 C34.10492491 20.29857691 35.98431679 23.10962736 37.5 26 C42.29834098 35.15032466 42.31868481 46.26358603 40.3515625 56.3125 C36.65715573 67.42729643 28.75144442 75.71196691 18.61328125 81.3203125 C8.64410678 85.68659718 -4.1392511 85.74119834 -14.375 82.1875 C-16.97750562 81.1093191 -18.87153484 80.1070543 -21.0390625 78.30078125 C-22.88637571 76.80461117 -22.88637571 76.80461117 -25.00390625 77.0546875 C-28.4064908 78.66608762 -30.46535202 81.58245223 -32.90234375 84.3828125 C-35 86 -35 86 -37.75390625 85.7421875 C-38.86572266 85.37480469 -38.86572266 85.37480469 -40 85 C-40.74609375 82.76953125 -40.74609375 82.76953125 -41 80 C-39.34765625 77.76171875 -39.34765625 77.76171875 -37.0625 75.6875 C-36.31097656 74.99011719 -35.55945313 74.29273437 -34.78515625 73.57421875 C-34.19605469 73.05472656 -33.60695313 72.53523438 -33 72 C-33.66 71.34 -34.32 70.68 -35 70 C-34.938125 69.071875 -34.87625 68.14375 -34.8125 67.1875 C-35.0653474 62.88909423 -36.88683015 61.80944596 -40 59 C-41 56 -41 56 -40.375 52.5625 C-39.64734452 49.04521842 -39.64734452 49.04521842 -41.4375 46.5625 C-41.953125 46.046875 -42.46875 45.53125 -43 45 C-42.690625 44.484375 -42.38125 43.96875 -42.0625 43.4375 C-40.16242438 39.07850298 -39.36199525 34.5500132 -41 30 C-40.195625 29.4225 -39.39125 28.845 -38.5625 28.25 C-35.96015203 25.96501154 -35.31151393 25.32281522 -35 22 C-35 20.68 -35 19.36 -35 18 C-33.906875 17.649375 -32.81375 17.29875 -31.6875 16.9375 C-28.53564713 15.62316459 -27.37683541 14.46435287 -26.0625 11.3125 C-25.5365625 9.6728125 -25.5365625 9.6728125 -25 8 C-23.6696875 8.1546875 -23.6696875 8.1546875 -22.3125 8.3125 C-17.96598868 7.90245176 -16.85698749 6.165851 -14 3 C-11 2 -11 2 -7.5625 2.625 C-4.04521842 3.35265548 -4.04521842 3.35265548 -1.5625 1.5625 C-1.046875 1.046875 -0.53125 0.53125 0 0 Z " fill="#FECF29" transform="translate(47,4)"/>
<path d="M0 0 C8.02442037 9.71934745 8.93157135 20.79456531 8.20703125 32.89697266 C7.14710291 43.66374469 0.81075894 52.02069775 -7.25 58.8125 C-17.56995123 66.2456307 -28.61618508 67.40435015 -41 66 C-47.3996432 64.55491928 -52.78667373 61.94521988 -58 58 C-56.41606688 54.11759569 -53.7742507 51.49150686 -50.84765625 48.58886719 C-50.32388397 48.06159027 -49.80011169 47.53431335 -49.26046753 46.99105835 C-47.5327998 45.25460807 -45.7979431 43.52555188 -44.0625 41.796875 C-42.85916341 40.59219117 -41.65612385 39.38721058 -40.45336914 38.1819458 C-37.93471796 35.66034841 -35.41249015 33.14239861 -32.88769531 30.62695312 C-29.64580665 27.39648316 -26.41301113 24.15708548 -23.18281555 20.91492844 C-20.70208746 18.4269891 -18.21663514 15.94381354 -15.72970581 13.46207428 C-14.53527843 12.26898417 -13.34234349 11.07439807 -12.15090942 9.87831879 C-10.48950026 8.21185385 -8.82185609 6.55189607 -7.15234375 4.89355469 C-6.41043289 4.14557114 -6.41043289 4.14557114 -5.65353394 3.38247681 C-2.22853222 0 -2.22853222 0 0 0 Z " fill="#83C8E3" transform="translate(80,22)"/>
<path d="M0 0 C1.29011266 0.69448593 2.56421031 1.42037925 3.8125 2.1875 C4.823125 2.765 5.83375 3.3425 6.875 3.9375 C7.514375 4.35 8.15375 4.7625 8.8125 5.1875 C3.87252739 11.14868297 -1.47279862 16.60236302 -6.9609375 22.05859375 C-7.8846817 22.980923 -8.8084259 23.90325226 -9.76016235 24.85353088 C-12.19425431 27.28383814 -14.63133597 29.71112496 -17.0690918 32.13775635 C-19.5648311 34.62319364 -22.05767708 37.11152932 -24.55078125 39.59960938 C-29.4268886 44.46505096 -34.30616631 49.32730198 -39.1875 54.1875 C-45.12688332 48.39305334 -47.30996067 42.63937632 -47.6652832 34.27685547 C-47.78994031 22.55360754 -44.80565713 14.92243035 -36.703125 6.390625 C-27.17737385 -1.95180302 -11.86160293 -5.25844326 0 0 Z " fill="#F4F5C1" transform="translate(61.1875,15.8125)"/>
<path d="M0 0 C2.6875 0.3125 2.6875 0.3125 5 1 C5.77734375 3.1953125 5.77734375 3.1953125 6 6 C4.19140625 8.4296875 4.19140625 8.4296875 1.5625 10.875 C0.71816406 11.67679688 -0.12617187 12.47859375 -0.99609375 13.3046875 C-2.52650195 14.69688354 -4.07266378 16.06189381 -5.64770508 17.40348816 C-11.81441032 22.67450262 -17.52824245 28.38254307 -23.25390625 34.12109375 C-24.32414967 35.19066164 -25.39454134 36.26008121 -26.46507263 37.32936096 C-28.69635913 39.55918224 -30.92585057 41.7907784 -33.15405273 44.02368164 C-35.99031888 46.86564432 -38.83105231 49.70309242 -41.67315769 52.53921413 C-43.88076333 54.74318226 -46.08595221 56.94955619 -48.29044914 59.15663338 C-49.33615979 60.20300449 -50.38259535 61.24865174 -51.42981148 62.29351616 C-57.96110741 68.81335592 -64.23264498 75.45701306 -70.125 82.5625 C-72 84 -72 84 -74.75 83.75 C-75.86375 83.37875 -75.86375 83.37875 -77 83 C-77.74609375 80.7734375 -77.74609375 80.7734375 -78 78 C-76.41015625 75.7890625 -76.41015625 75.7890625 -74.0625 73.625 C-73.31097656 72.91601562 -72.55945313 72.20703125 -71.78515625 71.4765625 C-70.33061085 70.18317992 -68.87325905 68.8924726 -67.38903809 67.633255 C-61.0519184 62.21872428 -55.19173212 56.33723555 -49.30859375 50.44140625 C-48.19350989 49.32699782 -47.07827778 48.21273771 -45.96290588 47.09861755 C-43.63746238 44.77463979 -41.31381489 42.44888536 -38.99145508 40.12182617 C-36.03412097 37.15879549 -33.07231872 34.2002783 -30.10914516 31.24308872 C-27.80889402 28.94647368 -25.51105769 26.64745434 -23.21391487 24.34773064 C-22.12354703 23.25670194 -21.0324532 22.16639823 -19.94058037 21.07687569 C-14.59521552 15.74049764 -9.30583874 10.39696814 -4.41786194 4.63194275 C-1.51910895 1.29551148 -1.51910895 1.29551148 0 0 Z " fill="#E7B266" transform="translate(84,6)"/>
<path d="M0 0 C1.68793492 1.20615593 3.28730316 2.53432383 4.8671875 3.87890625 C1.8671875 4.87890625 1.8671875 4.87890625 -1.1328125 3.87890625 C-13.06622931 3.05264243 -22.32128029 3.71001787 -31.9453125 11.50390625 C-37.7005397 16.93317368 -41.81918348 24.34928064 -42.37109375 32.3203125 C-42.59508392 40.75693295 -42.01099799 47.221613 -38.1328125 54.87890625 C-37.45323699 56.54035121 -36.78328205 58.20585168 -36.1328125 59.87890625 C-37.8203125 61.94140625 -37.8203125 61.94140625 -40.1328125 63.87890625 C-41.7828125 63.54890625 -43.4328125 63.21890625 -45.1328125 62.87890625 C-45.1328125 58.91890625 -45.1328125 54.95890625 -45.1328125 50.87890625 C-45.7928125 50.87890625 -46.4528125 50.87890625 -47.1328125 50.87890625 C-48.7924347 40.33806252 -46.72505365 31.79349183 -43.1328125 21.87890625 C-42.4728125 21.87890625 -41.8128125 21.87890625 -41.1328125 21.87890625 C-40.9059375 20.99203125 -40.6790625 20.10515625 -40.4453125 19.19140625 C-38.91241305 15.32266002 -37.19864523 13.67222052 -34.1328125 10.87890625 C-33.37484375 10.00685547 -33.37484375 10.00685547 -32.6015625 9.1171875 C-28.00077492 3.94130147 -23.76228372 2.44788111 -17.1328125 0.87890625 C-16.1221875 0.48703125 -15.1115625 0.09515625 -14.0703125 -0.30859375 C-9.28257956 -1.63286031 -4.5407632 -2.38681143 0 0 Z " fill="#FEDF40" transform="translate(57.1328125,11.12109375)"/>
<path d="M0 0 C1.31223496 3.93670488 0.24296256 6.12488144 -1 10 C-0.34 10 0.32 10 1 10 C1 11.32 1 12.64 1 14 C1.66 14 2.32 14 3 14 C5 19 7 24 9 29 C7.3125 31.0625 7.3125 31.0625 5 33 C3.35 32.67 1.7 32.34 0 32 C0 28.04 0 24.08 0 20 C-0.66 20 -1.32 20 -2 20 C-3.037006 13.28748816 -3.16396248 7.50670911 -1 1 C-0.67 0.67 -0.34 0.34 0 0 Z " fill="#FFD836" transform="translate(12,42)"/>
<path d="M0 0 C0.515625 0.309375 1.03125 0.61875 1.5625 0.9375 C5.92149702 2.83757562 10.4499868 3.63800475 15 2 C16.32 3.98 17.64 5.96 19 8 C17.52031676 7.85950482 16.04125484 7.71245174 14.5625 7.5625 C13.73878906 7.48128906 12.91507813 7.40007813 12.06640625 7.31640625 C10 7 10 7 9 6 C-4.13699474 5.10200744 -4.13699474 5.10200744 -16 10 C-17.23835174 10.56779198 -18.48860947 11.110416 -19.75 11.625 C-22.22547572 12.67231665 -24.6176871 13.76119729 -27 15 C-26.34 12.69 -25.68 10.38 -25 8 C-23.6696875 8.1546875 -23.6696875 8.1546875 -22.3125 8.3125 C-17.96598868 7.90245176 -16.85698749 6.165851 -14 3 C-11 2 -11 2 -7.5625 2.625 C-4.04521842 3.35265548 -4.04521842 3.35265548 -1.5625 1.5625 C-1.046875 1.046875 -0.53125 0.53125 0 0 Z " fill="#FFC517" transform="translate(47,4)"/>
<path d="M0 0 C0.66 0 1.32 0 2 0 C1.566875 1.8871875 1.566875 1.8871875 1.125 3.8125 C-0.74274769 12.31075197 -2.2863472 20.26641033 -2 29 C-1.34 29 -0.68 29 0 29 C-0.33 30.32 -0.66 31.64 -1 33 C-2.65 31.68 -4.3 30.36 -6 29 C-5.8438623 28.43990234 -5.68772461 27.87980469 -5.52685547 27.30273438 C-4.97650806 24.89732348 -4.74585314 22.61667334 -4.5703125 20.15625 C-4.49683594 19.23972656 -4.42335938 18.32320312 -4.34765625 17.37890625 C-4.19926399 15.46022033 -4.05863207 13.54091837 -3.92578125 11.62109375 C-3.84972656 10.70457031 -3.77367187 9.78804687 -3.6953125 8.84375 C-3.63359863 8.01037109 -3.57188477 7.17699219 -3.50830078 6.31835938 C-2.90280118 3.55667628 -1.91795194 2.05828988 0 0 Z " fill="#FFD12C" transform="translate(12,33)"/>
<path d="M0 0 C4.42857143 5.14285714 4.42857143 5.14285714 5 9 C3.68 9.99 2.36 10.98 1 12 C-0.26237731 9.47524538 -0.09856404 7.68799534 -0.0625 4.875 C-0.05347656 3.96492188 -0.04445313 3.05484375 -0.03515625 2.1171875 C-0.02355469 1.41851562 -0.01195312 0.71984375 0 0 Z " fill="#FEDB3A" transform="translate(16,62)"/>
<path d="M0 0 C0.66 0.33 1.32 0.66 2 1 C2 2.65 2 4.3 2 6 C2.66 6 3.32 6 4 6 C3.67 7.32 3.34 8.64 3 10 C1.35 8.68 -0.3 7.36 -2 6 C-1.34 4.02 -0.68 2.04 0 0 Z " fill="#FFC415" transform="translate(8,56)"/>
<path d="M0 0 C2.0625 0.4375 2.0625 0.4375 4 1 C4 1.99 4 2.98 4 4 C3.01 4 2.02 4 1 4 C1 4.66 1 5.32 1 6 C0.01 5.67 -0.98 5.34 -2 5 C-1.125 1.125 -1.125 1.125 0 0 Z " fill="#4EA6D1" transform="translate(72,40)"/>
<path d="M0 0 C3.73639216 1.24546405 4.18756513 2.63404953 6 6 C4.35 6 2.7 6 1 6 C0.67 5.01 0.34 4.02 0 3 C-0.66 2.34 -1.32 1.68 -2 1 C-1.34 0.67 -0.68 0.34 0 0 Z " fill="#FFBB12" transform="translate(60,6)"/>
<path d="M0 0 C0.99 0.33 1.98 0.66 3 1 C1.68 3.64 0.36 6.28 -1 9 C-2 5 -2 5 -2 1 C-1.34 0.67 -0.68 0.34 0 0 Z " fill="#FFBE11" transform="translate(14,21)"/>
<path d="M0 0 C2.22189824 2.22189824 2.92598892 4.08482708 4 7 C2.35 6.67 0.7 6.34 -1 6 C-0.67 4.02 -0.34 2.04 0 0 Z " fill="#FEC710" transform="translate(13,68)"/>
<path d="M0 0 C2.60018816 3.90028225 2.15085514 7.47434569 2 12 C1.67 12 1.34 12 1 12 C1 10.02 1 8.04 1 6 C0.34 6 -0.32 6 -1 6 C-1.042721 4.33388095 -1.04063832 2.66617115 -1 1 C-0.67 0.67 -0.34 0.34 0 0 Z " fill="#FFD329" transform="translate(11,56)"/>
</svg>
